<?xml version="1.0" standalone="no"?>
<!DOCTYPE svg PUBLIC "-//W3C//DTD SVG 20010904//EN"
 "http://www.w3.org/TR/2001/REC-SVG-20010904/DTD/svg10.dtd">
<svg version="1.0" xmlns="http://www.w3.org/2000/svg"
 width="600.000000pt" height="400.000000pt" viewBox="0 0 600.000000 400.000000"
 preserveAspectRatio="xMidYMid meet">
<g transform="translate(0.000000,400.000000) scale(0.100000,-0.100000)"
fill="#000000" stroke="none">
<path d="M2405 2940 c-76 -25 -149 -80 -198 -150 -71 -102 -71 -102 -71 -685
1 -518 1 -520 24 -580 13 -33 32 -73 43 -90 35 -53 120 -125 177 -148 54 -22
62 -22 600 -25 521 -3 547 -2 610 17 82 26 164 89 208 163 62 103 65 142 59
708 -5 473 -6 508 -25 557 -43 113 -127 195 -239 234 -53 18 -87 19 -592 18
-501 0 -540 -1 -596 -19z m1228 -44 c70 -36 130 -99 165 -174 l27 -57 0 -555
0 -555 -26 -56 c-37 -79 -90 -133 -167 -171 l-67 -33 -565 0 -565 0 -67 33
c-82 40 -149 111 -178 189 -20 54 -21 69 -18 612 l3 556 27 50 c44 83 135 157
228 186 14 4 277 7 585 6 l560 -2 58 -29z"/>
<path d="M2447 2889 c-101 -24 -192 -101 -226 -193 -20 -55 -21 -71 -21 -581
0 -456 2 -531 16 -572 21 -63 63 -119 119 -158 83 -60 88 -60 670 -60 598 0
592 -1 679 77 57 49 91 106 105 176 15 73 15 992 0 1064 -23 107 -81 180 -179
227 l-55 26 -535 2 c-294 1 -552 -3 -573 -8z m1153 -41 c69 -32 123 -88 148
-153 17 -43 20 -78 21 -246 1 -116 -2 -206 -8 -223 -7 -17 -7 -25 -1 -21 6 4
10 -17 10 -56 0 -54 -2 -60 -15 -49 -22 18 -114 60 -131 60 -16 0 -19 16 -4
25 17 10 11 44 -11 66 -19 19 -22 19 -38 5 -9 -9 -25 -42 -35 -73 -10 -32 -23
-69 -29 -83 -5 -14 -11 -36 -13 -49 -4 -31 -7 -33 -38 -22 -33 13 -33 29 -2
41 50 19 56 75 10 86 -15 4 -24 13 -24 26 0 11 -13 26 -30 36 -23 13 -30 23
-27 39 2 12 0 20 -4 17 -5 -3 -9 -16 -9 -29 0 -43 -15 -34 -17 10 -1 24 -6 53
-13 64 -6 12 -13 38 -16 59 -10 83 -40 138 -89 165 -59 32 -293 42 -408 18
-46 -10 -66 -21 -93 -49 -33 -35 -54 -84 -54 -128 0 -12 -7 -41 -16 -65 -18
-48 -21 -288 -5 -344 5 -19 6 9 3 76 -3 77 -1 112 9 130 13 23 14 22 20 -30
10 -74 32 -94 112 -99 86 -6 129 13 158 70 34 67 49 70 73 15 7 -18 25 -43 39
-55 47 -44 202 -39 226 6 5 9 12 39 16 66 11 82 26 38 28 -85 1 -63 3 -103 5
-89 2 14 11 34 20 44 10 11 11 16 4 12 -10 -6 -12 11 -10 81 3 83 4 88 25 91
17 3 26 -4 33 -24 6 -15 8 -34 6 -41 -4 -10 2 -13 21 -11 39 4 39 -18 -1 -37
-20 -10 -36 -23 -36 -30 0 -7 -2 -20 -5 -27 -4 -10 7 -20 35 -31 22 -8 40 -20
40 -26 0 -15 -22 -14 -54 3 -25 13 -29 11 -62 -22 -21 -21 -42 -56 -50 -82 -7
-25 -25 -61 -39 -80 -23 -31 -24 -36 -10 -54 32 -44 75 -122 75 -136 0 -10 63
-44 175 -94 96 -44 175 -83 175 -87 0 -10 -71 -54 -110 -68 -50 -17 -266 -27
-283 -13 -8 7 -17 8 -21 4 -8 -8 -566 -12 -566 -4 0 3 19 23 43 45 23 22 32
35 21 29 -12 -6 -35 -26 -51 -45 l-29 -34 -115 2 c-121 2 -179 14 -217 43
l-23 18 103 43 c57 24 118 52 137 63 18 10 35 17 37 15 2 -2 -1 -19 -6 -38
-13 -49 -21 -139 -10 -114 5 11 12 41 15 68 4 30 10 45 17 41 7 -5 8 -2 3 6
-4 7 -3 15 2 19 5 3 13 21 17 40 l6 35 -23 -22 c-31 -29 -312 -151 -327 -142
-9 5 188 110 207 110 4 0 37 14 74 31 58 27 70 37 80 66 6 19 26 54 45 79 19
24 34 48 34 53 0 4 -16 38 -35 75 -19 37 -35 73 -35 80 0 7 -11 18 -25 24 -14
6 -25 16 -25 22 0 5 -8 10 -18 10 -27 0 -49 -86 -28 -109 19 -21 25 -55 11
-59 -5 -1 -11 6 -13 17 -6 36 -25 42 -68 20 -44 -23 -98 -20 -140 8 -23 15
-26 15 -39 -3 -8 -10 -15 -27 -15 -37 0 -11 -6 -17 -12 -14 -17 5 -12 35 11
67 15 21 15 29 4 50 -7 14 -13 33 -13 42 0 30 -17 29 -43 -2 -28 -33 -37 -37
-37 -16 0 8 15 27 34 43 45 38 55 71 27 92 -12 9 -23 29 -24 43 -3 34 17 37
21 4 5 -38 28 -39 46 -1 9 18 16 37 16 43 0 5 9 21 21 35 24 31 13 62 -27 77
-29 11 -32 30 -5 30 11 0 31 -14 46 -32 38 -45 92 -47 120 -4 23 33 51 54 61
43 4 -3 -7 -20 -25 -36 -36 -34 -37 -35 -12 -69 10 -15 21 -43 25 -63 4 -21
13 -42 20 -48 11 -9 13 -4 9 32 -6 51 9 87 37 87 11 0 20 5 20 10 0 16 -32 12
-52 -7 -16 -15 -20 -15 -33 -2 -13 13 -12 19 12 52 25 36 26 38 8 57 -10 11
-21 20 -25 20 -4 0 -25 -18 -46 -40 -44 -45 -66 -50 -92 -19 -9 11 -30 27 -46
36 -27 14 -30 13 -49 -6 l-21 -21 28 -29 c27 -28 28 -32 16 -63 -19 -46 -25
-51 -48 -37 -46 29 -75 -58 -32 -96 26 -24 25 -39 -4 -58 -23 -15 -24 -15 -29
9 -2 13 -4 163 -3 332 1 291 2 309 22 353 40 86 128 153 223 169 25 4 278 7
561 6 l515 -1 55 -27z m-400 -314 c65 -22 96 -62 105 -132 3 -26 10 -60 17
-77 6 -16 13 -47 15 -67 l5 -37 -31 12 c-17 6 -31 17 -31 24 0 24 -44 43 -103
43 -63 0 -97 -12 -97 -35 0 -12 19 -15 98 -17 l97 -1 -110 -10 c-131 -11 -169
-11 -341 -2 -94 5 -133 4 -138 -4 -4 -6 -11 -11 -15 -11 -9 0 -2 71 9 85 4 6
10 35 14 65 20 156 84 193 326 186 87 -3 142 -10 180 -22z m-4 -261 c-11 -11
-75 -13 -81 -2 -4 5 14 9 41 9 26 0 44 -3 40 -7z m404 -45 c0 -7 -21 -86 -46
-175 -33 -113 -51 -163 -61 -163 -9 0 -12 6 -9 18 3 9 24 82 46 162 23 80 43
151 45 158 6 16 25 16 25 0z m-654 -30 c22 -22 12 -62 -26 -99 -26 -26 -35
-29 -97 -29 -74 0 -84 4 -102 37 -12 24 -15 96 -3 107 4 4 53 6 109 4 79 -2
106 -7 119 -20z m348 0 c9 -38 -5 -98 -28 -113 -23 -17 -121 -20 -159 -6 -26
10 -69 85 -60 107 8 22 54 32 149 33 87 1 92 0 98 -21z m407 -97 c35 -21 64
-44 64 -52 0 -11 -118 -88 -137 -89 -5 0 -8 6 -8 13 0 7 25 26 55 42 30 17 55
32 55 35 0 3 -25 18 -55 35 -30 16 -55 35 -55 42 0 20 13 16 81 -26z m-64 -23
c18 -13 33 -25 33 -28 0 -3 -14 -14 -30 -25 -35 -23 -46 -50 -30 -70 19 -22
39 -18 103 20 l57 34 1 -122 c1 -227 -2 -312 -12 -321 -5 -6 -9 -18 -9 -27 0
-26 -40 -89 -56 -89 -8 0 -14 5 -14 10 0 6 -4 10 -10 10 -9 0 -84 34 -236 106
-63 30 -74 39 -88 75 -9 23 -28 56 -41 74 -30 38 -30 40 -6 73 10 15 24 45 31
67 7 22 26 54 42 71 29 31 31 31 59 17 18 -9 28 -21 25 -28 -3 -8 4 -25 15
-39 16 -20 24 -24 38 -16 21 11 30 34 61 148 13 45 25 82 28 82 3 0 21 -10 39
-22z m-985 -165 c8 -10 18 -30 21 -44 4 -14 18 -42 32 -63 30 -45 30 -48 5
-71 -11 -10 -31 -42 -45 -71 -25 -53 -72 -91 -135 -109 -14 -4 -70 -29 -124
-57 -55 -27 -105 -47 -112 -44 -6 2 -25 31 -40 63 -28 56 -29 64 -31 218 l-1
160 30 12 c17 7 34 13 39 13 14 0 11 -34 -7 -68 -18 -38 -16 -61 9 -76 15 -9
22 -6 42 17 23 26 26 27 57 15 41 -16 63 -16 111 1 36 12 39 12 62 -13 28 -31
29 -31 50 -10 15 16 14 61 -4 89 -9 15 -8 29 2 43 13 16 21 15 39 -5z"/>
<path d="M2889 2748 c-81 -22 -113 -40 -168 -97 -43 -45 -91 -132 -90 -161 0
-8 7 3 15 25 20 57 81 133 137 171 71 49 179 71 279 56 42 -6 98 -22 125 -36
58 -30 126 -93 152 -144 11 -20 20 -33 21 -29 2 44 -111 165 -184 197 -84 36
-194 43 -287 18z"/>
<path d="M2920 2705 l-24 -13 32 2 c17 1 36 6 42 12 15 15 -20 15 -50 -1z"/>
<path d="M2990 2708 c0 -8 29 -12 67 -9 13 1 33 -4 45 -11 13 -6 28 -13 33
-14 44 -11 64 -13 69 -6 2 4 -10 9 -27 10 -17 2 -34 7 -38 13 -3 6 -9 10 -13
9 -3 -1 -21 2 -38 6 -50 10 -98 12 -98 2z"/>
<path d="M2829 2675 c-20 -13 -39 -21 -43 -18 -3 4 -6 -1 -6 -11 0 -14 8 -12
45 14 39 27 53 40 42 40 -1 0 -19 -11 -38 -25z"/>
<path d="M3225 2630 c-3 -5 -1 -10 4 -10 6 0 11 5 11 10 0 6 -2 10 -4 10 -3 0
-8 -4 -11 -10z"/>
<path d="M2735 2609 c-4 -6 -5 -12 -2 -15 2 -3 7 2 10 11 7 17 1 20 -8 4z"/>
<path d="M3371 2474 c0 -11 3 -14 6 -6 3 7 2 16 -1 19 -3 4 -6 -2 -5 -13z"/>
<path d="M2622 2450 c0 -14 2 -19 5 -12 2 6 2 18 0 25 -3 6 -5 1 -5 -13z"/>
<path d="M3381 2384 c0 -11 3 -14 6 -6 3 7 2 16 -1 19 -3 4 -6 -2 -5 -13z"/>
<path d="M3381 2344 c0 -11 3 -14 6 -6 3 7 2 16 -1 19 -3 4 -6 -2 -5 -13z"/>
<path d="M2622 2305 c0 -16 2 -22 5 -12 2 9 2 23 0 30 -3 6 -5 -1 -5 -18z"/>
<path d="M2391 2184 c-35 -44 -28 -50 59 -52 88 -2 96 5 59 52 -16 20 -29 26
-59 26 -30 0 -43 -6 -59 -26z m77 -9 c1 -6 -9 -11 -23 -12 -23 -2 -32 7 -20
19 8 8 40 3 43 -7z"/>
<path d="M3388 2183 c-6 -13 18 -98 25 -87 6 10 -7 81 -16 90 -3 3 -7 2 -9 -3z"/>
<path d="M2610 2170 c-8 -5 -12 -12 -9 -15 4 -3 12 1 19 10 14 17 11 19 -10 5z"/>
<path d="M2610 2106 c0 -14 4 -27 8 -30 5 -3 6 8 4 25 -5 35 -12 38 -12 5z"/>
<path d="M2349 2094 c-18 -22 -24 -124 -9 -168 12 -36 55 -76 84 -76 14 0 16
18 16 130 l0 130 -39 0 c-23 0 -44 -6 -52 -16z m59 -114 c0 -88 -2 -99 -15
-88 -23 19 -35 58 -34 116 0 61 5 72 31 72 17 0 19 -8 18 -100z"/>
<path d="M2460 1980 c0 -118 2 -130 18 -130 28 0 63 30 78 66 18 44 18 128 -1
164 -13 26 -21 30 -55 30 l-40 0 0 -130z m78 76 c7 -17 7 -27 -1 -35 -6 -6 -7
-11 -1 -11 14 0 4 -70 -13 -97 -25 -37 -33 -17 -33 78 0 80 2 89 18 89 11 0
24 -11 30 -24z"/>
<path d="M2590 2032 c0 -29 4 -42 14 -42 11 0 12 8 6 36 -12 51 -20 54 -20 6z"/>
<path d="M3090 2005 c0 -12 -9 -15 -35 -12 -19 2 -32 0 -29 -4 3 -5 -2 -9 -10
-9 -8 0 -17 4 -20 8 -3 5 -22 8 -43 7 -21 -1 -44 3 -52 9 -11 9 -13 8 -9 -4 4
-13 79 -33 113 -30 69 5 95 13 95 31 0 10 -2 19 -5 19 -3 0 -5 -7 -5 -15z"/>
<path d="M2925 1944 c-11 -3 -40 -12 -64 -21 l-44 -16 6 -93 c4 -52 3 -94 0
-94 -4 0 -20 12 -35 27 -22 21 -28 23 -28 10 0 -8 5 -19 11 -23 6 -3 18 -20
26 -38 9 -20 12 -23 9 -8 -5 26 15 30 35 5 8 -9 32 -29 53 -45 34 -25 48 -28
111 -28 66 0 76 3 115 33 66 50 93 66 101 62 7 -5 19 18 19 36 0 6 -16 -2 -36
-18 l-37 -27 6 29 c3 17 7 61 9 100 l3 70 -39 18 c-34 16 -68 20 -141 16 -11
0 -29 1 -40 4 -11 3 -29 3 -40 1z m193 -39 l52 -16 -6 -57 c-9 -76 -17 -95
-48 -111 -20 -11 -36 -12 -70 -4 -33 7 -54 7 -82 -3 -71 -24 -112 12 -121 109
l-6 66 49 15 c64 19 168 20 232 1z m-175 -210 c51 9 82 9 123 0 22 -5 40 -2
58 10 38 25 45 10 12 -24 -59 -61 -184 -66 -250 -9 -41 35 -48 57 -11 32 19
-13 36 -15 68 -9z"/>
<path d="M2888 1887 c-21 -6 -38 -14 -38 -18 0 -14 90 -22 189 -17 120 6 143
16 75 34 -58 15 -173 16 -226 1z m67 -7 c3 -5 -1 -10 -10 -10 -9 0 -13 5 -10
10 3 6 8 10 10 10 2 0 7 -4 10 -10z m132 -3 c3 -3 -22 -6 -56 -6 -33 0 -61 5
-61 9 0 10 107 6 117 -3z"/>
<path d="M2880 1834 c0 -26 65 -64 114 -66 36 -1 107 30 114 51 2 7 -10 3 -30
-9 -58 -35 -157 -23 -190 24 -5 8 -8 8 -8 0z"/>
<path d="M2718 1680 c-24 -40 -39 -86 -62 -192 -13 -59 4 -24 29 60 33 108 45
123 45 55 0 -29 4 -63 10 -77 9 -25 101 -118 116 -118 5 0 18 -5 29 -11 34
-18 146 -25 192 -12 23 7 44 10 47 7 6 -5 89 66 95 82 2 6 13 24 24 40 12 17
23 54 27 90 6 55 7 59 17 36 12 -26 25 -61 27 -70 8 -35 30 -100 33 -97 2 2
-4 37 -12 77 -14 66 -59 170 -74 170 -3 0 -7 -30 -8 -66 -2 -85 -17 -128 -62
-177 -100 -111 -261 -112 -380 -1 l-56 52 -5 98 -5 99 -27 -45z"/>
<path d="M3182 1660 c-13 -16 -19 -30 -14 -30 4 0 16 14 25 30 10 17 16 30 14
30 -2 0 -13 -13 -25 -30z"/>
<path d="M3350 1568 c0 -37 14 -88 20 -77 4 6 14 -21 21 -62 7 -41 15 -65 16
-54 2 11 -3 50 -10 88 -8 37 -13 67 -12 67 2 0 41 -18 88 -40 46 -22 89 -40
96 -40 6 0 11 -4 11 -8 0 -5 6 -9 13 -9 6 0 26 -4 42 -8 48 -12 26 0 -69 39
-111 46 -179 81 -200 101 -12 12 -16 13 -16 3z"/>
<path d="M3220 1426 c0 -2 8 -10 18 -17 15 -13 16 -12 3 4 -13 16 -21 21 -21
13z"/>
<path d="M2743 2275 l-28 -24 103 -1 c83 0 102 3 102 15 0 22 -33 35 -94 35
-44 0 -60 -5 -83 -25z m125 -4 c8 -5 -5 -8 -33 -9 -29 -2 -44 2 -40 8 7 12 55
13 73 1z"/>
<path d="M2759 2171 l-23 -18 37 -12 c26 -9 46 -10 66 -3 16 6 34 6 42 2 8 -5
19 -4 26 2 11 9 10 14 -3 29 -24 26 -113 26 -145 0z m58 2 c-4 -3 -2 -12 4
-20 14 -16 9 -16 -28 -2 -22 8 -24 12 -13 19 17 11 47 13 37 3z m93 -18 c0 -3
-9 -5 -20 -5 -11 0 -20 7 -20 15 0 13 4 14 20 5 11 -6 20 -13 20 -15z"/>
<path d="M3108 2179 c-29 -16 -22 -41 10 -38 15 1 41 -1 58 -5 18 -4 42 -1 63
7 l32 14 -25 16 c-28 19 -111 22 -138 6z m32 -14 c0 -9 -9 -15 -21 -15 -18 0
-19 2 -9 15 7 8 16 15 21 15 5 0 9 -7 9 -15z m80 5 c17 -10 14 -15 -17 -24
-18 -6 -20 -4 -16 14 6 22 11 24 33 10z"/>
</g>
</svg>
